<svg class="svg-icon" style="width: 1em; height: 1em;vertical-align: middle;fill: currentColor;overflow: hidden;" viewBox="0 0 1024 1024" version="1.1" xmlns="http://www.w3.org/2000/svg"><path d="M568.6 286.6c-45.6 7.8-85.8 39.4-102.4 86.2-16.6 46.8-5.2 96.6 25.6 131.4 45.6-7.8 85.8-39.4 102.4-86.2s5-96.6-25.6-131.4z" fill="#FEFE71" /><path d="M568.6 286.6c-45.6 7.8-85.8 39.4-102.4 86.2-16.6 46.8-5.2 96.6 25.6 131.4l76.8-217.6z" fill="#D6CD1E" /><path d="M477 531.6s-20.4-182.6-132.4-182.6-137.6 106-64.8 106 172.8 35.4 172.8 76.8h24.4z" fill="#7DAC51" /><path d="M466.4 481.2c0-0.6 0-1.2-0.2-1.6-1-4-2.2-8-3.6-12-18.6-35.2-104.4-63-169.2-63-21 0-33.8-8.8-38.8-21.2-27.4 31-20 71.6 25 71.6 72.8 0 172.8 35.4 172.8 76.8h24.2s-2.4-21.8-10.2-50.2z" fill="#5B7C31" /><path d="M491.8 518c-4 0-7.8-1.6-10.4-4.8-35-39.8-45.8-95.4-28.2-145.2 17.6-49.8 61-86.4 113.2-95.2 4.8-0.8 9.6 1 12.8 4.6 35 39.8 45.8 95.4 28.2 145.2-17.6 49.8-61 86.4-113.2 95.2-1 0.2-1.6 0.2-2.4 0.2z m71.4-216c-38.8 9.2-70.4 37.6-83.8 75.4-13.4 37.8-6.6 79.8 17.8 111.2 38.8-9.2 70.4-37.6 83.8-75.4 13.2-37.8 6.4-79.6-17.8-111.2z" fill="#463218" /><path d="M477 545.6h-24.2c-7.8 0-14-6.2-14-14 0-26-82.2-62.8-158.8-62.8-27.4 0-55-14.8-55-48 0-20.6 12-42.6 32.2-58.4 15.8-12.4 43.6-27.4 87.8-27.4 52 0 93.8 34.6 121.2 100 19.6 47 25 93.2 25.2 95.2 0.4 4-0.8 8-3.4 10.8s-7 4.6-11 4.6z m-132.4-182.6c-36 0-58 11.6-70.2 21.2-13.2 10.6-21.6 24.6-21.6 36.6 0 17.4 17 20 27 20 38.2 0 82.6 9 119 23.8 28.8 11.8 48.8 25.8 59.4 41.2-10.2-48-40-142.8-113.6-142.8z" fill="#463218" /><path d="M369 743.2H618v58.4H369z" fill="#5B7C31" /><path d="M901 349c-13.6-24.4-39.8-41-69.8-41s-56.2 16.6-69.8 41c13.6 24.4 39.8 41 69.8 41s56.2-16.6 69.8-41z" fill="#7DAC51" /><path d="M759.2 230.6c-19.8 11-33 32-33 56.2 0 24.2 13.4 45.2 33 56.2 19.8-11 33-32 33-56.2 0-24-13.2-45.2-33-56.2z" fill="#7DAC51" /><path d="M757 349c-25.8-25.8-68.2-24-91.6 4l-198.4 235.6c-12 14.2-11 35.2 2 48.4 13.2 13.2 34.2 14 48.4 2l235.6-198.4c28-23.6 29.8-65.8 4-91.6z" fill="#FE8E46" /><path d="M494.4 661.4c-12.8 0-25.4-5-35.2-14.6-18.4-18.4-19.6-47.4-2.8-67.2L654.8 344c13.8-16.4 33.8-26.2 55-27 21.2-1 42.2 7.2 57.2 22.2s23.2 36 22.2 57.2c-1 21.2-10.8 41.4-27 55l-235.6 198.4c-9.4 7.8-20.8 11.6-32.2 11.6z m218.8-316.8h-2.2c-13.6 0.6-26 6.6-34.8 17.2l-198.4 235.6c-7.4 8.8-6.8 21.4 1.2 29.4s20.8 8.6 29.4 1.2L744 429.6c10.4-8.8 16.6-21.2 17.2-34.8 0.6-13.6-4.4-26.6-14-36.2-9.2-9-21.2-14-34-14z" fill="#463218" /><path d="M642.6 440.4c-3.6 0-7.2-1.4-9.8-4.2l-21.2-21.2c-5.4-5.4-5.4-14.4 0-19.8s14.4-5.4 19.8 0l21.2 21.2c5.4 5.4 5.4 14.4 0 19.8-2.8 2.8-6.4 4.2-10 4.2zM596.6 586.4c-3.6 0-7.2-1.4-9.8-4.2l-19.4-19.4c-5.4-5.4-5.4-14.4 0-19.8s14.4-5.4 19.8 0l19.4 19.4c5.4 5.4 5.4 14.4 0 19.8-2.8 2.8-6.4 4.2-10 4.2zM831.2 404c-34 0-65.4-18.4-82-48.2-2.4-4.2-2.4-9.4 0-13.6 16.6-29.8 48-48.2 82-48.2s65.4 18.4 82 48.2c2.4 4.2 2.4 9.4 0 13.6-16.6 29.6-48 48.2-82 48.2zM778 349c12.4 16.8 32 27 53.2 27 21.2 0 40.8-10.2 53.2-27-12.4-16.8-32-27-53.2-27s-40.8 10-53.2 27z" fill="#463218" /><path d="M759.2 357.2c-2.4 0-4.6-0.6-6.8-1.8-24.8-13.8-40.2-40-40.2-68.4s15.4-54.6 40.2-68.4c4.2-2.4 9.4-2.4 13.6 0 24.8 13.8 40.2 40 40.2 68.4s-15.4 54.6-40.2 68.4c-2.2 1.2-4.4 1.8-6.8 1.8z m0-109.8c-12 9.4-19 24-19 39.4s7.2 30 19 39.4c12-9.4 19-24 19-39.4s-7-29.8-19-39.4z" fill="#463218" /><path d="M618 815.6H369c-7.8 0-14-6.2-14-14v-58.4c0-7.8 6.2-14 14-14H618c7.8 0 14 6.2 14 14v58.4c0 7.8-6.2 14-14 14z m-235-28H604v-30.4H383v30.4z" fill="#463218" /><path d="M235.8 517.4c0 97.2 53.8 181.8 133.2 225.8H618v0.2c79.6-44 133.4-128.6 133.4-226H235.8z" fill="#FEFE71" /><path d="M374.2 517.4h-138.4c0 97.2 53.8 181.8 133.2 225.8h138.4c-79.4-43.8-133.2-128.6-133.2-225.8zM618 743.2h0.2-0.2z" fill="#D6CD1E" /><path d="M618 757.4c-0.6 0-1.2 0-1.8-0.2H369c-2.4 0-4.8-0.6-6.8-1.8-86.6-48-140.6-139.2-140.6-238 0-7.8 6.2-14 14-14h515.8c7.8 0 14 6.2 14 14 0 99-54 190.2-140.8 238.2-2 1.2-4.2 1.8-6.6 1.8z m-245.2-28.2h241.8c71.8-41.2 117.8-115.6 122.6-197.8H250.2c4.8 82.2 50.6 156.8 122.6 197.8z" fill="#463218" /><path d="M241.6 572.4h504c3.8-17.6 5.8-36 5.8-54.8H235.8c0 18.6 2 37 5.8 54.8z" fill="#7DAC51" /><path d="M745.6 586.4h-504c-6.6 0-12.2-4.6-13.6-11-4.2-19-6.2-38.4-6.2-57.8 0-7.8 6.2-14 14-14h515.8c7.8 0 14 6.2 14 14 0 19.4-2 38.8-6.2 57.8-1.4 6.4-7.2 11-13.8 11z m-492.4-28H734c1.4-8.8 2.6-17.8 3-26.8H250.2c0.6 8.8 1.6 17.8 3 26.8z" fill="#463218" /><path d="M383.4 697.4c-22.2-18.4-60.8-70-62.4-72.2l22.4-16.8c10.6 14.2 41.6 54 57.8 67.6l-17.8 21.4z" fill="#FFFFFF" /></svg>